<?xml version="1.0" encoding="UTF-8" standalone="no"?>
<svg
   xmlns:dc="http://purl.org/dc/elements/1.1/"
   xmlns:cc="http://creativecommons.org/ns#"
   xmlns:rdf="http://www.w3.org/1999/02/22-rdf-syntax-ns#"
   xmlns:svg="http://www.w3.org/2000/svg"
   xmlns="http://www.w3.org/2000/svg"
   xmlns:sodipodi="http://sodipodi.sourceforge.net/DTD/sodipodi-0.dtd"
   xmlns:inkscape="http://www.inkscape.org/namespaces/inkscape"
   viewBox="0 0 630 630"
   fill="#fff"
   version="1.1"
   id="svg5314"
   sodipodi:docname="js-logo.svg"
   inkscape:version="0.92.1 r15371">
  <metadata
     id="metadata5320">
    <rdf:RDF>
      <cc:Work
         rdf:about="">
        <dc:format>image/svg+xml</dc:format>
        <dc:type
           rdf:resource="http://purl.org/dc/dcmitype/StillImage" />
      </cc:Work>
    </rdf:RDF>
  </metadata>
  <defs
     id="defs5318" />
  <sodipodi:namedview
     pagecolor="#ffffff"
     bordercolor="#666666"
     borderopacity="1"
     objecttolerance="10"
     gridtolerance="10"
     guidetolerance="10"
     inkscape:pageopacity="0"
     inkscape:pageshadow="2"
     inkscape:window-width="1374"
     inkscape:window-height="862"
     id="namedview5316"
     showgrid="false"
     inkscape:zoom="0.74920635"
     inkscape:cx="315"
     inkscape:cy="315"
     inkscape:window-x="0"
     inkscape:window-y="27"
     inkscape:window-maximized="0"
     inkscape:current-layer="svg5314" />
  <rect
     x="0"
     y="0"
     width="630"
     height="630"
     fill="#f7df1e"
     id="rect5308" />
  <path
     d="m212,497c11,17,20,31,40,31,19,0,32-8,32-37v-201h59v202c0,61-36,89-88,89-47,0-75-25-89-54"
     id="path5310"
     style="fill:#000000" />
  <path
     d="m423,492c13,21,29,36,58,36,25,0,40-12,40-29,0-20-16-27-43-39l-15-6c-43-18-71-41-71-89,0-44,34-78,87-78,38,0,65,13,84,47l-46,30c-10-18-21-25-38-25-17,0-28,11-28,25,0,18,11,25,36,36l15,6c50,22,79,44,79,93,0,53-42,82-98,82-55,0-91-26-108-60"
     id="path5312"
     style="fill:#000000" />
</svg>
