<?xml version="1.0" encoding="UTF-8" standalone="no"?>
<svg
   xmlns:dc="http://purl.org/dc/elements/1.1/"
   xmlns:cc="http://creativecommons.org/ns#"
   xmlns:rdf="http://www.w3.org/1999/02/22-rdf-syntax-ns#"
   xmlns:svg="http://www.w3.org/2000/svg"
   xmlns="http://www.w3.org/2000/svg"
   xmlns:sodipodi="http://sodipodi.sourceforge.net/DTD/sodipodi-0.dtd"
   xmlns:inkscape="http://www.inkscape.org/namespaces/inkscape"
   viewBox="0 0 630 630"
   fill="#fff"
   version="1.1"
   id="svg5314"
   sodipodi:docname="stratic-logo-asteroid-with-pipe.svg"
   inkscape:version="0.92.1 r15371">
  <metadata
     id="metadata5320">
    <rdf:RDF>
      <cc:Work
         rdf:about="">
        <dc:format>image/svg+xml</dc:format>
        <dc:type
           rdf:resource="http://purl.org/dc/dcmitype/StillImage" />
        <dc:title></dc:title>
      </cc:Work>
    </rdf:RDF>
  </metadata>
  <defs
     id="defs5318" />
  <sodipodi:namedview
     pagecolor="#ffffff"
     bordercolor="#666666"
     borderopacity="1"
     objecttolerance="10"
     gridtolerance="10"
     guidetolerance="10"
     inkscape:pageopacity="0"
     inkscape:pageshadow="2"
     inkscape:window-width="1920"
     inkscape:window-height="1016"
     id="namedview5316"
     showgrid="false"
     inkscape:zoom="1"
     inkscape:cx="528.37223"
     inkscape:cy="327.02565"
     inkscape:window-x="0"
     inkscape:window-y="27"
     inkscape:window-maximized="1"
     inkscape:current-layer="layer7" />
  <rect
     x="0"
     y="0"
     width="630"
     height="630"
     id="rect5308"
     style="fill:#f7df1e" />
  <rect
     style="fill:#f7df1e;fill-opacity:1;stroke:none;stroke-width:8.30344391;stroke-miterlimit:4;stroke-dasharray:none;stroke-opacity:1"
     id="rect5907"
     width="15.188842"
     height="15.188843"
     x="161.44492"
     y="124.75848" />
  <g
     inkscape:groupmode="layer"
     id="layer5"
     inkscape:label="file"
     style="display:inline">
    <g
       id="g10906"
       transform="translate(-105.06329)">
      <path
         sodipodi:nodetypes="cccccc"
         inkscape:connector-curvature="0"
         id="rect5362"
         d="M 255,142.15042 H 447.80721 V 487.84958 H 182.19279 V 217 Z"
         style="fill:none;fill-opacity:1;stroke:#000000;stroke-width:9.45899963;stroke-miterlimit:4;stroke-dasharray:none;stroke-opacity:1" />
      <path
         sodipodi:nodetypes="ccc"
         inkscape:connector-curvature="0"
         id="rect5362-3"
         d="m 255.10593,142.42267 v 72.84958 h -72.80721"
         style="fill:none;fill-opacity:1;stroke:#000000;stroke-width:9.45899963;stroke-linejoin:miter;stroke-miterlimit:4;stroke-dasharray:none;stroke-opacity:1" />
    </g>
  </g>
  <g
     inkscape:groupmode="layer"
     id="layer6"
     inkscape:label="asteroid"
     style="display:inline">
    <g
       style="display:inline"
       id="g11085"
       transform="translate(-97.063291,17.76141)">
      <path
         sodipodi:nodetypes="sssssssss"
         inkscape:connector-curvature="0"
         id="path10900"
         d="m 383.57022,257.41776 c 1.08169,7.66127 -1.05196,17.78144 -7.84081,20.04741 -6.85851,2.28923 -13.6476,12.44804 -21.70773,9.50113 -8.56302,-3.13079 -16.22264,-1.25881 -22.15873,-10.00047 -3.90377,-5.7488 0.95895,-11.27008 -7.38979,-19.54807 -5.51841,-5.47163 2.73906,-13.79811 7.90497,-20.11663 5.01497,-6.13391 14.94598,-4.12049 21.64355,-9.4319 6.57976,-5.21796 16.9309,3.95943 22.34901,10.2181 4.48565,5.18156 6.15594,11.93907 7.19953,19.33043 z"
         style="display:inline;fill:none;fill-opacity:1;stroke:#000000;stroke-width:6.19284964;stroke-linejoin:miter;stroke-miterlimit:4;stroke-dasharray:none;stroke-opacity:1" />
      <path
         sodipodi:nodetypes="cc"
         inkscape:connector-curvature="0"
         id="path10908"
         d="m 253.57839,341.76907 c 18.90819,-24.46257 37.81639,-48.92514 56.72458,-73.38771"
         style="display:inline;fill:none;stroke:#000000;stroke-width:4.75754213;stroke-linecap:round;stroke-linejoin:miter;stroke-miterlimit:4;stroke-dasharray:none;stroke-opacity:1" />
      <path
         sodipodi:nodetypes="cc"
         inkscape:connector-curvature="0"
         id="path10908-6"
         d="m 264.34047,398.07958 c 24.24153,-32.46257 48.48305,-64.92514 72.72458,-97.38771"
         style="display:inline;fill:none;stroke:#000000;stroke-width:4.75754213;stroke-linecap:round;stroke-linejoin:miter;stroke-miterlimit:4;stroke-dasharray:none;stroke-opacity:1" />
      <path
         sodipodi:nodetypes="cc"
         inkscape:connector-curvature="0"
         id="path10908-0"
         d="M 218.34047,422.07958 319.06505,290.69187"
         style="display:inline;opacity:0.97000002;fill:none;stroke:#000000;stroke-width:4.7579999;stroke-linecap:round;stroke-linejoin:miter;stroke-miterlimit:4;stroke-dasharray:none;stroke-opacity:1" />
      <path
         sodipodi:nodetypes="cc"
         inkscape:connector-curvature="0"
         id="path10908-6-0"
         d="m 333.63771,339.43244 28.72458,-39.3877"
         style="display:inline;fill:none;stroke:#000000;stroke-width:4.75754213;stroke-linecap:round;stroke-linejoin:miter;stroke-miterlimit:4;stroke-dasharray:none;stroke-opacity:1" />
    </g>
  </g>
  <g
     inkscape:groupmode="layer"
     id="layer7"
     inkscape:label="asteroid craters"
     style="display:none">
    <g
       id="g11092"
       transform="matrix(0.81520093,0,0,0.81520093,-31.344722,65.257469)">
      <path
         sodipodi:nodetypes="cscsc"
         inkscape:connector-curvature="0"
         id="path10933-1"
         d="m 361.60204,251.77475 c 0,2.89928 0.94943,11.54034 -5.24963,10.34043 -2.84645,-0.55097 -3.55269,-2.35034 -3.55269,-5.24963 0,-2.89929 0.87377,-4.14091 3.55269,-5.24962 2.89929,-1.19991 5.24963,-2.74047 5.24963,0.15882 z"
         style="display:inline;opacity:0.97000002;fill:none;fill-opacity:1;stroke:#000000;stroke-width:3.01969743;stroke-linecap:butt;stroke-linejoin:round;stroke-miterlimit:4;stroke-dasharray:none;stroke-opacity:1" />
      <path
         sodipodi:nodetypes="cscsc"
         inkscape:connector-curvature="0"
         id="path10933-8"
         d="m 344.93574,245.95636 c 0,2.89928 -0.6534,8.6435 -3.55268,8.6435 -2.8993,0 -6.94657,-4.04727 -6.94657,-6.94656 0,-2.89929 6.37211,-11.69917 6.94657,-5.24963 0.25722,2.88786 5.35256,0.65341 3.55268,3.55269 z"
         style="display:inline;opacity:0.97000002;fill:none;fill-opacity:1;stroke:#000000;stroke-width:3.01969743;stroke-linecap:round;stroke-linejoin:miter;stroke-miterlimit:4;stroke-dasharray:none;stroke-opacity:1" />
      <path
         sodipodi:nodetypes="sssss"
         inkscape:connector-curvature="0"
         id="path10933-7"
         d="m 347.64728,271.90024 c 0,2.8993 -2.35034,5.24964 -5.24963,5.24964 -2.8993,0 -8.6435,-2.35034 -8.6435,-5.24964 0,-2.89928 6.34416,-6.74951 8.6435,-5.24962 2.42831,1.58403 5.24963,2.35033 5.24963,5.24962 z"
         style="display:inline;opacity:0.95;fill:none;fill-opacity:1;stroke:#000000;stroke-width:3.01969743;stroke-linecap:round;stroke-linejoin:miter;stroke-miterlimit:4;stroke-dasharray:none;stroke-opacity:1" />
      <path
         sodipodi:nodetypes="cscc"
         inkscape:connector-curvature="0"
         id="path10933-9"
         d="m 373.90097,240.3634 c 1.76777,2.54575 3.01389,9.36006 0.14424,8.94657 -3.12439,-0.45019 -9.71335,-8.67167 -9.24962,-10.6435 1.3706,-4.19505 4.971,-2.78762 9.10538,1.69693 z"
         style="display:inline;opacity:0.97000002;fill:none;fill-opacity:1;stroke:#000000;stroke-width:3.01969743;stroke-linecap:round;stroke-linejoin:miter;stroke-miterlimit:4;stroke-dasharray:none;stroke-opacity:1" />
      <path
         sodipodi:nodetypes="ccc"
         inkscape:connector-curvature="0"
         id="path10933-7-2"
         d="m 369.88683,272.06789 c 0.50689,3.85676 -3.29202,4.97932 -6.94657,3.55271 -4.57509,-3.38155 6.13024,-7.88866 6.94657,-3.55271 z"
         style="display:inline;opacity:0.95;fill:none;fill-opacity:1;stroke:#000000;stroke-width:3.01969743;stroke-linecap:round;stroke-linejoin:miter;stroke-miterlimit:4;stroke-dasharray:none;stroke-opacity:1" />
    </g>
  </g>
  <path
     style="fill:none;stroke:#000000;stroke-width:4.7579999;stroke-linecap:round;stroke-linejoin:miter;stroke-miterlimit:4;stroke-dasharray:none;stroke-opacity:1"
     d="m 95.936709,327.5 c 25.053191,-4.03907 50.646021,-7.41154 77.537491,-9.1798 m 108.38559,2.71679 c 13.58246,1.60688 27.58747,3.73573 42.07692,6.46301"
     id="path11143"
     inkscape:connector-curvature="0"
     sodipodi:nodetypes="cccc" />
  <g
     inkscape:groupmode="layer"
     id="layer1"
     inkscape:label="pipe"
     style="display:inline">
    <g
       id="g4620"
       transform="matrix(3.7718585,0,0,3.7718585,-932.24039,-645.03723)">
      <rect
         id="rect4"
         height="3"
         width="40"
         y="233.52631"
         x="338.9884"
         style="fill:#000000" />
      <rect
         id="rect6"
         height="2"
         width="40"
         y="239.52631"
         x="338.9884"
         style="fill:#000000" />
      <path
         id="path8"
         d="m 338.98841,253.02631 h 40"
         style="stroke:#000000"
         inkscape:connector-curvature="0" />
      <rect
         id="rect10"
         height="12"
         width="40"
         y="255.52631"
         x="338.9884"
         style="fill:#000000" />
      <path
         id="path12"
         d="m 338.98841,268.02631 h 40"
         style="stroke:#000000;stroke-dasharray:1, 1"
         inkscape:connector-curvature="0" />
      <path
         id="path14"
         d="m 339.98841,269.02631 h 40"
         style="stroke:#000000;stroke-dasharray:1, 1"
         inkscape:connector-curvature="0" />
      <path
         id="path16"
         d="m 338.98841,270.02631 h 40"
         style="stroke:#000000;stroke-dasharray:1, 1"
         inkscape:connector-curvature="0" />
      <path
         id="path18"
         d="m 339.98841,271.02631 h 40"
         style="stroke:#000000;stroke-dasharray:1, 1"
         inkscape:connector-curvature="0" />
      <path
         id="path20"
         d="m 338.98841,272.02631 h 40"
         style="stroke:#000000;stroke-dasharray:1, 1"
         inkscape:connector-curvature="0" />
      <rect
         id="rect22"
         height="3"
         width="40"
         y="272.52631"
         x="338.9884"
         style="fill:#000000" />
      <path
         id="path24"
         d="m 380.48841,231.02631 h 13 v 47 h -13 z"
         style="fill:none;stroke:#000000;stroke-width:3"
         inkscape:connector-curvature="0" />
      <rect
         id="rect26"
         height="2"
         width="9"
         y="237.52631"
         x="381.9884"
         style="fill:#000000" />
      <path
         id="path28"
         d="m 390.48841,237.52631 v -5"
         style="stroke:#000000"
         inkscape:connector-curvature="0" />
      <path
         id="path30"
         d="m 381.98841,252.02631 h 9"
         style="stroke:#000000"
         inkscape:connector-curvature="0" />
      <path
         id="path32"
         d="m 390.48841,252.52631 v 24"
         style="stroke:#000000"
         inkscape:connector-curvature="0" />
      <rect
         id="rect34"
         height="14"
         width="9"
         y="254.52631"
         x="381.9884"
         style="fill:#000000" />
      <path
         id="path36"
         d="m 382.98841,269.02631 h 7"
         style="stroke:#000000;stroke-dasharray:1, 1"
         inkscape:connector-curvature="0" />
      <path
         id="path38"
         d="m 381.98841,270.02631 h 7"
         style="stroke:#000000;stroke-dasharray:1, 1"
         inkscape:connector-curvature="0" />
      <path
         id="path40"
         d="m 382.98841,271.02631 h 7"
         style="stroke:#000000;stroke-dasharray:1, 1"
         inkscape:connector-curvature="0" />
      <path
         id="path42"
         d="m 381.98841,272.02631 h 7"
         style="stroke:#000000;stroke-dasharray:1, 1"
         inkscape:connector-curvature="0" />
      <path
         id="path44"
         d="m 382.98841,273.02631 h 7"
         style="stroke:#000000;stroke-dasharray:1, 1"
         inkscape:connector-curvature="0" />
      <path
         id="path46"
         d="m 381.98841,274.02631 h 7"
         style="stroke:#000000;stroke-dasharray:1, 1"
         inkscape:connector-curvature="0" />
    </g>
  </g>
</svg>
